<svg width="45" height="45" viewBox="0 0 45 45" fill="none" xmlns="http://www.w3.org/2000/svg">
<g clip-path="url(#clip0_1917_2)">
<path d="M37.5 32.8125C38.2223 32.8129 38.9167 33.0911 39.4395 33.5895C39.9622 34.088 40.2731 34.7684 40.3079 35.4898C40.3426 36.2113 40.0984 36.9184 39.6259 37.4648C39.1535 38.0111 38.4889 38.3547 37.77 38.4244L37.5 38.4375H7.5C6.77772 38.4371 6.08326 38.1589 5.56053 37.6605C5.03779 37.162 4.72685 36.4816 4.69214 35.7602C4.65743 35.0387 4.90161 34.3316 5.37408 33.7852C5.84655 33.2389 6.51109 32.8953 7.23 32.8256L7.5 32.8125H37.5ZM37.5 19.6875C38.2459 19.6875 38.9613 19.9838 39.4887 20.5113C40.0162 21.0387 40.3125 21.7541 40.3125 22.5C40.3125 23.2459 40.0162 23.9613 39.4887 24.4887C38.9613 25.0162 38.2459 25.3125 37.5 25.3125H7.5C6.75408 25.3125 6.03871 25.0162 5.51126 24.4887C4.98382 23.9613 4.6875 23.2459 4.6875 22.5C4.6875 21.7541 4.98382 21.0387 5.51126 20.5113C6.03871 19.9838 6.75408 19.6875 7.5 19.6875H37.5ZM37.5 6.5625C38.2459 6.5625 38.9613 6.85882 39.4887 7.38626C40.0162 7.91371 40.3125 8.62908 40.3125 9.375C40.3125 10.1209 40.0162 10.8363 39.4887 11.3637C38.9613 11.8912 38.2459 12.1875 37.5 12.1875H7.5C6.75408 12.1875 6.03871 11.8912 5.51126 11.3637C4.98382 10.8363 4.6875 10.1209 4.6875 9.375C4.6875 8.62908 4.98382 7.91371 5.51126 7.38626C6.03871 6.85882 6.75408 6.5625 7.5 6.5625H37.5Z" fill="#070707"/>
</g>
<defs>
<clipPath id="clip0_1917_2">
<rect width="45" height="45" fill="white"/>
</clipPath>
</defs>
</svg>
